<?xml version="1.0" encoding="UTF-8"?>
<svg version="1.1" xmlns="http://www.w3.org/2000/svg" width="300" height="300">
<path d="M0 0 C3.85696521 0.33538828 5.09951867 1.26426125 7.984375 3.78125 C8.84933594 4.5134375 9.71429688 5.245625 10.60546875 6 C11.47300781 6.7528125 12.34054688 7.505625 13.234375 8.28125 C46.65254159 36.44566917 90.953613 48.96650249 134.234375 46.28125 C139.28656272 45.73455157 144.26855009 44.87151067 149.265625 43.9609375 C153.8056875 43.14192054 158.67704495 42.27942313 163.234375 43.28125 C165.41714429 44.83542133 166.12621155 45.75504946 166.66796875 48.390625 C166.7332166 92.4981699 147.0724292 145.06345187 118.234375 178.28125 C117.54988281 179.0753125 116.86539063 179.869375 116.16015625 180.6875 C113.89275739 183.26020391 111.57806245 185.77785009 109.234375 188.28125 C108.56946045 188.99716309 108.56946045 188.99716309 107.89111328 189.72753906 C92.65740956 206.00580931 73.68506024 219.41349685 50.7265625 220.6640625 C28.45442926 221.34935891 6.87975503 215.82947692 -9.765625 200.28125 C-10.41917969 199.683125 -11.07273437 199.085 -11.74609375 198.46875 C-15.65042735 194.73923731 -18.75212326 190.75584349 -21.765625 186.28125 C-22.96445313 186.4978125 -22.96445313 186.4978125 -24.1875 186.71875 C-42.83067669 189.86970944 -59.70531855 188.1904909 -75.56835938 177.01074219 C-89.96757845 166.15295267 -99.62329824 152.17531219 -107.765625 136.28125 C-108.11753906 135.60191406 -108.46945313 134.92257813 -108.83203125 134.22265625 C-119.24060294 113.90481705 -127.95498538 88.47758673 -127.890625 65.46875 C-127.89320312 64.53417969 -127.89578125 63.59960938 -127.8984375 62.63671875 C-127.765625 60.28125 -127.765625 60.28125 -126.765625 58.28125 C-125.775625 58.28125 -124.785625 58.28125 -123.765625 58.28125 C-123.435625 56.96125 -123.105625 55.64125 -122.765625 54.28125 C-118.68773658 53.43590671 -115.63878207 53.28053961 -111.578125 54.15625 C-83.29684104 59.25386415 -55.69953912 54.0883187 -29.765625 42.28125 C-29.08564453 42.03173584 -28.40566406 41.78222168 -27.70507812 41.52514648 C-24.9492815 39.75767621 -24.46291769 37.87027253 -23.328125 34.828125 C-22.90789062 33.73371094 -22.48765625 32.63929687 -22.0546875 31.51171875 C-21.62929687 30.36316406 -21.20390625 29.21460937 -20.765625 28.03125 C-14.17949055 10.48818277 -14.17949055 10.48818277 -7.765625 7.28125 C-6.36850226 5.32527816 -5.02782593 3.32688599 -3.765625 1.28125 C-2.765625 0.28125 -2.765625 0.28125 0 0 Z M-4.765625 82.28125 C-0.97656111 84.43530687 3.1131326 85.49792502 7.28125 86.6640625 C8.05245178 86.88319305 8.82365356 87.10232361 9.6182251 87.32809448 C12.07256744 88.02455166 14.5284294 88.71547023 16.984375 89.40625 C18.65244712 89.87854133 20.32041711 90.35119349 21.98828125 90.82421875 C26.06914097 91.98074713 30.15137208 93.13231197 34.234375 94.28125 C34.564375 93.62125 34.894375 92.96125 35.234375 92.28125 C30.31428977 85.09304038 25.80611196 80.74523285 17.234375 78.28125 C9.03723165 77.39674018 2.40239193 78.1323203 -4.765625 82.28125 Z M-73.67895508 93.58935547 C-75.8211702 94.15441551 -77.96612349 94.70813343 -80.11132812 95.26171875 C-81.46633047 95.61909235 -82.82115461 95.97714243 -84.17578125 96.3359375 C-85.41465088 96.66062012 -86.65352051 96.98530273 -87.92993164 97.31982422 C-90.89539128 97.95455816 -90.89539128 97.95455816 -91.765625 100.28125 C-84.92573766 105.11753398 -79.08499932 106.46973205 -70.765625 105.28125 C-66.69062755 104.21446205 -63.85637695 102.82131738 -61.390625 99.33984375 C-59.68902002 96.13160936 -58.765625 93.94962936 -58.765625 90.28125 C-63.75478163 90.28125 -68.85703793 92.31245989 -73.67895508 93.58935547 Z M79.234375 105.28125 C78.904375 106.27125 78.574375 107.26125 78.234375 108.28125 C83.30336655 109.73458129 88.37534714 111.17676051 93.45043945 112.60864258 C95.17689597 113.09744 96.90249194 113.58928753 98.62719727 114.08422852 C101.10473883 114.79464236 103.58515619 115.49407194 106.06640625 116.19140625 C106.83837845 116.41530533 107.61035065 116.63920441 108.40571594 116.86988831 C112.80892541 118.13799056 112.80892541 118.13799056 117.234375 117.28125 C112.52870564 110.09797442 107.79098186 105.98997757 99.734375 102.96875 C92.55757218 101.55902087 85.80975572 101.78493159 79.234375 105.28125 Z M-52.578125 137.65625 C-57.07466453 143.05209744 -60.20884401 147.34649834 -61.765625 154.28125 C-52.79992258 152.83725466 -44.39242159 150.05937094 -35.765625 147.28125 C-36.425625 141.67125 -37.085625 136.06125 -37.765625 130.28125 C-43.01409406 130.28125 -48.71383835 134.39307461 -52.578125 137.65625 Z M9.234375 139.28125 C14.77221525 151.11209053 26.09181939 158.3024393 38.01953125 162.72265625 C52.48922938 167.8151945 66.75175334 169.0545574 81.1953125 163.31640625 C83.38521713 162.33735724 83.38521713 162.33735724 85.234375 160.28125 C69.57442364 155.67822532 53.88939706 151.17244361 38.17138672 146.77172852 C34.78403367 145.82264043 31.39787734 144.86935546 28.01171875 143.91601562 C25.84902902 143.30964366 23.68627134 142.70351399 21.5234375 142.09765625 C20.51536041 141.81338272 19.50728333 141.52910919 18.46865845 141.23622131 C17.54523651 140.97852463 16.62181458 140.72082794 15.67041016 140.45532227 C14.85899567 140.2277272 14.04758118 140.00013214 13.21157837 139.76564026 C11.24989487 139.20193305 11.24989487 139.20193305 9.234375 139.28125 Z " fill="#1D8D22" transform="translate(130.765625,39.71875)"/>
<path d="M0 0 C0.61407715 0.11593506 1.2281543 0.23187012 1.86083984 0.35131836 C4.69809407 0.88440246 7.53652089 1.41097852 10.375 1.9375 C11.82326172 2.21110352 11.82326172 2.21110352 13.30078125 2.49023438 C33.11690164 6.14757203 53.20790953 6.28313321 73.03125 2.6796875 C77.5713125 1.86067054 82.44266995 0.99817313 87 2 C89.18276929 3.55417133 89.89183655 4.47379946 90.43359375 7.109375 C90.50753783 57.09557633 66.57022888 110.88013348 33 147 C32.37996094 147.67417969 31.75992188 148.34835938 31.12109375 149.04296875 C27.97852361 152.34020677 25.0045441 154.86578492 20.91015625 156.98046875 C18.93722471 157.99555409 18.93722471 157.99555409 16.93359375 159.36328125 C11.63582399 162.83237922 6.25356055 165.20471281 0.3125 167.3125 C-0.40019043 167.56692871 -1.11288086 167.82135742 -1.84716797 168.08349609 C-9.29639588 170.62540453 -16.4926348 171.18121898 -24.3125 171.1875 C-25.10333984 171.19974609 -25.89417969 171.21199219 -26.70898438 171.22460938 C-31.04401988 171.23517404 -35.05692239 170.87753936 -39.30541992 169.9855957 C-40.63146492 169.71027763 -40.63146492 169.71027763 -41.98429871 169.42939758 C-42.64948013 169.28769638 -43.31466156 169.14599518 -44 169 C-43.66677734 167.78417236 -43.33355469 166.56834473 -42.99023438 165.31567383 C-41.75387575 160.79802914 -40.52584255 156.27815617 -39.30029297 151.75756836 C-38.76902926 149.80252439 -38.23551928 147.84808937 -37.69970703 145.89428711 C-36.92928084 143.08344648 -36.1669984 140.27050439 -35.40625 137.45703125 C-35.16563843 136.58601273 -34.92502686 135.7149942 -34.67712402 134.81758118 C-33.59819832 130.79798101 -32.66874993 127.20461742 -33 123 C-31.87078125 123.23396484 -31.87078125 123.23396484 -30.71875 123.47265625 C-14.24837065 126.49089324 -0.6121064 124.36246966 14.125 116.34375 C16.25486915 114.81734378 17.53651404 113.15864179 19 111 C17.53119385 110.81993408 17.53119385 110.81993408 16.03271484 110.63623047 C11.75297048 110.02203958 7.64340347 108.95735592 3.4765625 107.8203125 C2.68978119 107.60688202 1.90299988 107.39345154 1.09237671 107.17355347 C-0.55707875 106.72375416 -2.20586592 106.27149758 -3.85400391 105.81689453 C-6.38519638 105.12220157 -8.9208657 104.44580942 -11.45703125 103.76953125 C-13.0628069 103.32924277 -14.66828708 102.88787496 -16.2734375 102.4453125 C-17.03377289 102.24519562 -17.79410828 102.04507874 -18.57748413 101.83889771 C-20.69287109 101.24267578 -20.69287109 101.24267578 -24 100 C-25.4075762 95.7772714 -24.04632273 92.45640859 -22.92626953 88.29345703 C-22.57776947 86.95885437 -22.57776947 86.95885437 -22.222229 85.59729004 C-21.45022866 82.648686 -20.66650774 79.70332774 -19.8828125 76.7578125 C-19.3449247 74.71161741 -18.80781542 72.66521752 -18.27145386 70.61862183 C-16.85537538 65.22306555 -15.42955317 59.83013233 -14.00146484 54.43774414 C-12.27013294 47.89388826 -10.54916923 41.34730016 -8.82777214 34.80082512 C-7.48781455 29.7051443 -6.14594308 24.60999621 -4.79812622 19.51638794 C-4.42640793 18.10847488 -4.42640793 18.10847488 -4.04718018 16.67211914 C-3.58550171 14.92350554 -3.12271943 13.17518284 -2.65859985 11.42721558 C-1.65850962 7.63393609 -0.7052683 3.86199258 0 0 Z M3 64 C2.67 64.99 2.34 65.98 2 67 C7.06899155 68.45333129 12.14097214 69.89551051 17.21606445 71.32739258 C18.94252097 71.81619 20.66811694 72.30803753 22.39282227 72.80297852 C24.87036383 73.51339236 27.35078119 74.21282194 29.83203125 74.91015625 C30.60400345 75.13405533 31.37597565 75.35795441 32.17134094 75.58863831 C36.57455041 76.85674056 36.57455041 76.85674056 41 76 C36.29433064 68.81672442 31.55660686 64.70872757 23.5 61.6875 C16.32319718 60.27777087 9.57538072 60.50368159 3 64 Z " fill="#2DAC33" transform="translate(207,81)"/>
<path d="M0 0 C1.32177565 2.6435513 0.73729254 3.57292992 -0.07421875 6.3828125 C-0.32792236 7.2912793 -0.58162598 8.19974609 -0.84301758 9.13574219 C-1.12169678 10.12219727 -1.40037598 11.10865234 -1.6875 12.125 C-3.99602267 20.61176106 -5.88959127 29.06991388 -7.3125 37.75 C-7.47129639 38.71180176 -7.63009277 39.67360352 -7.79370117 40.66455078 C-9.58874523 52.04992083 -10.1401606 63.16386145 -10.0625 74.6875 C-10.05798828 75.97333984 -10.05347656 77.25917969 -10.04882812 78.58398438 C-10.03716001 81.72270653 -10.02079015 84.86132728 -10 88 C-10.90621094 88.3403125 -11.81242187 88.680625 -12.74609375 89.03125 C-20.09889583 91.95680935 -25.64856156 94.76002231 -31.328125 100.4609375 C-33 102 -33 102 -35 102 C-35.26554687 102.53109375 -35.53109375 103.0621875 -35.8046875 103.609375 C-38.203125 108.40625 -40.6015625 113.203125 -43 118 C-42.08710205 117.72736328 -41.1742041 117.45472656 -40.23364258 117.17382812 C-36.83444955 116.16061938 -33.43265996 115.15638275 -30.0300293 114.15478516 C-28.55990834 113.72069241 -27.09049511 113.28419513 -25.62182617 112.84521484 C-23.50622756 112.21332931 -21.38820408 111.59023864 -19.26953125 110.96875 C-18.61725052 110.77188599 -17.96496979 110.57502197 -17.29292297 110.37219238 C-13.76787344 109.3481678 -10.67204483 108.77912512 -7 109 C-6.81937012 109.54825439 -6.63874023 110.09650879 -6.45263672 110.66137695 C-1.80926482 124.79590499 -1.80926482 124.79590499 4.93359375 138.00390625 C6 140 6 140 6 143 C-6.87835186 147.54654458 -6.87835186 147.54654458 -13 148 C-14.03060547 148.09474609 -14.03060547 148.09474609 -15.08203125 148.19140625 C-32.77657905 149.1010762 -48.12535451 140.88316141 -60.87890625 129.41015625 C-87.97679075 104.03505694 -103.07500569 61.86949455 -105.14453125 25.45703125 C-105.24137564 20.48275128 -105.24137564 20.48275128 -104 18 C-99.95437949 16.99580889 -96.8568141 17.00281409 -92.8125 17.875 C-60.63442651 23.67499843 -27.99874609 16.50897988 0 0 Z M-54.91333008 57.30810547 C-57.0555452 57.87316551 -59.20049849 58.42688343 -61.34570312 58.98046875 C-62.70070547 59.33784235 -64.05552961 59.69589243 -65.41015625 60.0546875 C-66.64902588 60.37937012 -67.88789551 60.70405273 -69.16430664 61.03857422 C-72.12976628 61.67330816 -72.12976628 61.67330816 -73 64 C-66.16011266 68.83628398 -60.31937432 70.18848205 -52 69 C-47.92500255 67.93321205 -45.09075195 66.54006738 -42.625 63.05859375 C-40.92339502 59.85035936 -40 57.66837936 -40 54 C-44.98915663 54 -50.09141293 56.03120989 -54.91333008 57.30810547 Z " fill="#D55248" transform="translate(112,76)"/>
<path d="M0 0 C0.99 0 1.98 0 3 0 C3.08975098 0.63687744 3.17950195 1.27375488 3.27197266 1.92993164 C9.16251832 42.94734892 21.48541749 87.69240591 55.88671875 114.2265625 C68.30447195 122.55230288 83.652274 127.05865826 98.53125 124.359375 C100.92666238 123.84607235 103.31785534 123.3124479 105.703125 122.75390625 C106.79109375 122.50511719 107.8790625 122.25632812 109 122 C110.54880859 121.5359375 110.54880859 121.5359375 112.12890625 121.0625 C115 121 115 121 117.38671875 123.24609375 C118.14597656 124.29925781 118.90523438 125.35242188 119.6875 126.4375 C130.60077578 140.64671765 146.88804137 147.93509029 164 152 C164.7734375 152.19335938 165.546875 152.38671875 166.34375 152.5859375 C185.68776977 155.60132882 205.80136645 151.30862672 221.875 140.125 C223.25981019 139.09641108 224.63902723 138.0599281 226 137 C226.66 137.33 227.32 137.66 228 138 C211.27096042 154.24221568 192.21000505 162.46548783 168.87451172 162.36132812 C149.82110961 162.01022492 131.035846 155.11069608 117 142 C116.34644531 141.401875 115.69289063 140.80375 115.01953125 140.1875 C111.11519765 136.45798731 108.01350174 132.47459349 105 128 C103.80117187 128.2165625 103.80117187 128.2165625 102.578125 128.4375 C83.93494831 131.58845944 67.06030645 129.9092409 51.19726562 118.72949219 C36.79804655 107.87170267 27.14232676 93.89406219 19 78 C18.64808594 77.32066406 18.29617187 76.64132813 17.93359375 75.94140625 C7.52502206 55.62356705 -1.18936038 30.19633673 -1.125 7.1875 C-1.12757812 6.25292969 -1.13015625 5.31835938 -1.1328125 4.35546875 C-1 2 -1 2 0 0 Z " fill="#2D4551" transform="translate(4,98)"/>
<path d="M0 0 C9.82370127 1.73255967 19.32680301 4.51412508 28.9140625 7.2265625 C30.73813833 7.73969705 32.56230778 8.25249895 34.38656616 8.76498413 C39.15822481 10.10643067 43.92860851 11.45235621 48.69873047 12.79925537 C53.57833164 14.17619772 58.45913936 15.54884933 63.33984375 16.921875 C72.89440709 19.61041278 82.44762748 22.30368941 92 25 C90.11668753 29.18024964 88.16720246 30.91639877 84 33 C78.70949615 32.60148602 73.78986661 31.55936448 68.65356445 30.20922852 C67.96792419 30.03007401 67.28228394 29.85091949 66.5758667 29.66633606 C59.48305727 27.80302517 52.4088332 25.86889308 45.33666992 23.92895508 C41.98717899 23.01261876 38.63284776 22.11896352 35.2722168 21.24438477 C31.19389162 20.18282326 27.12800862 19.08228113 23.06780052 17.95347404 C21.52660686 17.53199445 19.98161579 17.12414072 18.43303871 16.73065376 C6.38153821 13.65152352 6.38153821 13.65152352 2.9180603 9.51119995 C1.29717571 6.36764161 0 3.57160204 0 0 Z " fill="#2D4551" transform="translate(134,167)"/>
<path d="M0 0 C1.09997395 3.29992186 0.93813286 3.9421401 -0.07421875 7.11328125 C-0.3278418 7.93779785 -0.58146484 8.76231445 -0.84277344 9.61181641 C-1.26091309 10.94865479 -1.26091309 10.94865479 -1.6875 12.3125 C-6.27650352 27.69179111 -9.06782175 43.27578863 -10.31738281 59.27587891 C-10.47989066 61.19055466 -10.73094127 63.09737038 -11 65 C-11.99 65.495 -11.99 65.495 -13 66 C-13.15557373 65.39752441 -13.31114746 64.79504883 -13.47143555 64.17431641 C-16.32774582 53.12851909 -19.21503411 42.09633738 -22.30639648 31.11376953 C-23.78774628 25.83043021 -25.14683502 20.52487664 -26.421875 15.1875 C-26.92657937 12.97698216 -26.92657937 12.97698216 -28 11 C-27.06800781 10.70867187 -26.13601562 10.41734375 -25.17578125 10.1171875 C-16.44264562 7.3289874 -8.24334904 4.0452185 0 0 Z " fill="#E1564B" transform="translate(105,80)"/>
<path d="M0 0 C1.32177565 2.6435513 0.73729254 3.57292992 -0.07421875 6.3828125 C-0.32792236 7.2912793 -0.58162598 8.19974609 -0.84301758 9.13574219 C-1.12169678 10.12219727 -1.40037598 11.10865234 -1.6875 12.125 C-3.99602267 20.61176106 -5.88959127 29.06991388 -7.3125 37.75 C-7.47129639 38.71180176 -7.63009277 39.67360352 -7.79370117 40.66455078 C-9.58874523 52.04992083 -10.1401606 63.16386145 -10.0625 74.6875 C-10.05798828 75.97333984 -10.05347656 77.25917969 -10.04882812 78.58398438 C-10.03716001 81.72270653 -10.02079015 84.86132728 -10 88 C-12.97 88.99 -15.94 89.98 -19 91 C-19.41306428 66.85868758 -16.99901921 44.3377333 -11 20.9375 C-10.75088867 19.96127686 -10.50177734 18.98505371 -10.24511719 17.97924805 C-6.60112951 4.15430267 -6.60112951 4.15430267 -2.3125 1.0625 C-1.549375 0.711875 -0.78625 0.36125 0 0 Z " fill="#BF4B40" transform="translate(112,76)"/>
<path d="M0 0 C6.6066634 5.40545187 11.12876308 11.9357738 12.42578125 20.49609375 C12.48765625 21.44484375 12.54953125 22.39359375 12.61328125 23.37109375 C10.94102396 23.06704697 9.27574166 22.72480873 7.61328125 22.37109375 C6.47890625 22.20609375 5.34453125 22.04109375 4.17578125 21.87109375 C-0.34873793 19.96603304 -1.32626062 17.70947129 -3.79296875 13.62890625 C-7.6729892 8.13221061 -13.94880956 5.63568306 -20.38671875 4.37109375 C-26.95352579 3.83283088 -32.1902306 5.23787652 -38.38671875 7.37109375 C-35.8785837 1.48907144 -30.78701874 -1.65100625 -25.01171875 -4.00390625 C-16.01556294 -5.5549676 -7.72147569 -5.26981238 0 0 Z " fill="#2C4651" transform="translate(247.38671875,138.62890625)"/>
<path d="M0 0 C7.06797723 4.50867583 11.57376569 11.01833074 13.5234375 19.1953125 C13.8125 21.125 13.8125 21.125 14 24 C12.3934324 23.74379316 10.7897517 23.46944129 9.1875 23.1875 C8.29417969 23.03667969 7.40085938 22.88585937 6.48046875 22.73046875 C2.44994831 21.54352808 0.89154725 18.96324644 -1.3125 15.5625 C-5.08402063 10.21010246 -9.78282973 7.76228792 -16 6 C-22.91397682 5.42312831 -29.47017975 5.57029944 -36 8 C-34.50204176 3.50612528 -30.94735506 1.24707119 -27 -1 C-17.3547051 -5.28679773 -9.44535704 -4.57997888 0 0 Z " fill="#2C4651" transform="translate(164,113)"/>
<path d="M0 0 C0.18062988 0.54825439 0.36125977 1.09650879 0.54736328 1.66137695 C5.19073518 15.79590499 5.19073518 15.79590499 11.93359375 29.00390625 C13 31 13 31 13 34 C11.73160474 34.50615298 10.46016898 35.00469099 9.1875 35.5 C8.47980469 35.7784375 7.77210937 36.056875 7.04296875 36.34375 C5 37 5 37 2 37 C-3.38512277 26.19274331 -7.86464711 14.93960754 -10 3 C-6.41659212 0.54280602 -4.30874796 -0.17379824 0 0 Z " fill="#BD4C40" transform="translate(105,185)"/>
<path d="M0 0 C0.33719047 2.56204544 0.66987153 5.12454318 1 7.6875 C1.09539062 8.40873047 1.19078125 9.12996094 1.2890625 9.87304688 C1.76683735 13.60992871 2.11919794 17.22291531 2 21 C-0.97 21.66 -3.94 22.32 -7 23 C-8.2982126 17.23918159 -9.25706972 11.91260345 -9 6 C-13.455 7.485 -13.455 7.485 -18 9 C-14.95403002 5.55672959 -12.12934091 3.94337402 -7.875 2.25 C-6.82054688 1.82203125 -5.76609375 1.3940625 -4.6796875 0.953125 C-2 0 -2 0 0 0 Z " fill="#2C4551" transform="translate(102,164)"/>
<path d="M0 0 C0.99 0 1.98 0 3 0 C2.82114258 0.53584717 2.64228516 1.07169434 2.45800781 1.6237793 C2.20889648 2.37054932 1.95978516 3.11731934 1.703125 3.88671875 C1.29030273 5.12107666 1.29030273 5.12107666 0.86914062 6.38037109 C0.3082462 8.07093209 -0.24566425 9.76383386 -0.79101562 11.45947266 C-1.58614964 13.91935685 -2.41563495 16.36567599 -3.25 18.8125 C-3.51167969 19.64458984 -3.77335937 20.47667969 -4.04296875 21.33398438 C-5.54423864 25.64754095 -6.68096257 28.25054803 -10.734375 30.57421875 C-12.35085937 31.27998047 -12.35085937 31.27998047 -14 32 C-12.3337364 25.5412449 -10.0571875 19.3635264 -7.5625 13.1875 C-7.27431396 12.45861572 -6.98612793 11.72973145 -6.68920898 10.97875977 C-4.97264002 6.80281563 -3.22387485 3.26233061 0 0 Z " fill="#2C4551" transform="translate(120,48)"/>
<path d="M0 0 C-0.47610659 4.99911924 -2.03162219 7.97832683 -5 12 C-6 10 -6 10 -5.0625 6.875 C-4.5365625 5.451875 -4.5365625 5.451875 -4 4 C-4.56807373 4.16604736 -5.13614746 4.33209473 -5.72143555 4.50317383 C-16.42382067 7.62204336 -27.08813938 10.69211111 -38 13 C-38.33 12.01 -38.66 11.02 -39 10 C-4.65130261 0 -4.65130261 0 0 0 Z " fill="#2E4552" transform="translate(76,126)"/>
</svg>
